# Blender3D v249 OBJ File: 
# www.blender3d.org
mtllib tay4.mtl
v -0.422150 0.250385 0.079300
v -0.422150 0.250385 0.516368
v -1.447066 0.250385 0.516368
v -1.447065 0.250385 0.079300
v -0.422150 0.394528 0.079300
v -0.422151 0.394528 0.516368
v -1.447066 0.394528 0.516368
v -1.447066 0.394528 0.079300
v 0.278500 0.278676 -0.081250
v 0.278500 0.278676 0.122289
v -0.641070 0.278676 0.122289
v -0.641070 0.278676 -0.081250
v 0.278501 0.366236 -0.081250
v 0.278500 0.366236 0.122289
v -0.641070 0.366236 0.122289
v -0.641070 0.366236 -0.081250
v 0.278500 0.278676 0.491090
v 0.278500 0.278676 0.694629
v -0.641070 0.278676 0.694629
v -0.641070 0.278676 0.491090
v 0.278500 0.366236 0.491090
v 0.278500 0.366236 0.694629
v -0.641070 0.366236 0.694629
v -0.641070 0.366236 0.491090
v -1.244901 0.250385 0.516368
v -0.422150 0.250385 0.297834
v -1.244901 0.250385 0.079300
v -1.757359 0.250385 0.297834
v -0.422150 0.394528 0.297834
v -1.244901 0.394528 0.516368
v -1.757359 0.394528 0.297834
v -1.244901 0.394528 0.079300
v -0.422150 0.322456 0.516368
v -0.422150 0.322456 0.079300
v -1.757359 0.322456 0.445943
v -1.757359 0.322456 0.149725
v -1.244901 0.250385 0.297834
v -1.555194 0.518736 0.297834
v -0.422150 0.322456 0.297834
v -1.244901 0.322456 0.516368
v -2.067652 0.322456 0.297834
v -1.244901 0.322456 0.079300
v 0.588793 0.278676 0.020519
v 0.588793 0.366236 0.020519
v 0.588793 0.322456 0.122289
v 0.588793 0.322456 -0.081250
v 0.588793 0.278676 0.592859
v 0.588793 0.366236 0.592859
v 0.588793 0.322456 0.694629
v 0.588793 0.322456 0.491090
v 0.588793 0.322456 0.020519
v 0.588793 0.322456 0.592859
vt 0.000000 0.000000
vt 1.000000 0.000000
vt 1.000000 1.000000
vt 0.000000 1.000000
vn -1.000000 -0.000002 -0.000001
vn 0.000000 -1.000000 0.000000
vn -0.241857 0.787304 -0.567149
vn 0.061649 0.970736 -0.232102
vn -0.241857 0.787304 0.567149
vn 0.061649 0.970736 0.232102
vn 1.000000 -0.000001 0.000002
vn 1.000000 -0.000001 0.000001
vn 1.000000 0.000002 0.000002
vn 1.000000 0.000002 0.000000
vn -0.000000 -0.000001 1.000000
vn -0.094561 -0.265248 0.959532
vn -0.094561 0.265247 0.959532
vn -0.250282 0.870573 0.423630
vn -0.250281 -0.870573 0.423630
vn -0.250281 0.870573 -0.423630
vn -0.250281 -0.870573 -0.423630
vn 0.000000 0.000001 -1.000000
vn -0.094560 0.265248 -0.959532
vn -0.094560 -0.265248 -0.959532
vn -0.000000 1.000000 -0.000000
vn 0.250924 0.889217 -0.382531
vn 0.250924 -0.889217 -0.382531
vn 0.250924 0.889217 0.382531
vn 0.250924 -0.889217 0.382531
vn -0.000000 0.000000 1.000000
vn -0.000000 -0.000002 1.000000
vn 0.000000 0.000000 -1.000000
vn -0.000000 0.000001 1.000000
usemtl Material.001
s off
f 11/1/1 15/2/1 16/3/1 12/4/1
f 19/1/1 23/2/1 24/3/1 20/4/1
f 26/1/2 2/2/2 25/3/2 37/4/2
f 1/1/2 26/2/2 37/3/2 27/4/2
f 37/1/2 25/2/2 3/3/2 28/4/2
f 27/1/2 37/2/2 28/3/2 4/4/2
f 32/1/3 8/2/3 31/3/3 38/4/3
f 5/1/4 32/2/4 38/3/4 29/4/4
f 38/1/5 31/2/5 7/3/5 30/4/5
f 29/1/6 38/2/6 30/3/6 6/4/6
f 34/1/7 5/2/7 29/3/7 39/4/7
f 1/1/8 34/2/8 39/3/8 26/4/8
f 39/1/9 29/2/9 6/3/9 33/4/9
f 26/1/10 39/2/10 33/3/10 2/4/10
f 33/1/11 6/2/11 30/3/11 40/4/11
f 2/1/11 33/2/11 40/3/11 25/4/11
f 40/1/12 30/2/12 7/3/12 35/4/12
f 25/1/13 40/2/13 35/3/13 3/4/13
f 35/1/14 7/2/14 31/3/14 41/4/14
f 3/1/15 35/2/15 41/3/15 28/4/15
f 41/1/16 31/2/16 8/3/16 36/4/16
f 28/1/17 41/2/17 36/3/17 4/4/17
f 34/1/18 1/2/18 27/3/18 42/4/18
f 5/1/18 34/2/18 42/3/18 32/4/18
f 42/1/19 27/2/19 4/3/19 36/4/19
f 32/1/20 42/2/20 36/3/20 8/4/20
f 43/1/2 11/2/2 12/3/2
f 9/1/2 43/2/2 12/3/2
f 43/1/2 10/2/2 11/3/2
f 44/1/21 16/2/21 15/3/21
f 14/1/21 44/2/21 15/3/21
f 44/1/21 13/2/21 16/3/21
f 46/1/22 13/2/22 44/3/22 51/4/22
f 9/1/23 46/2/23 51/3/23 43/4/23
f 51/1/24 44/2/24 14/3/24 45/4/24
f 43/1/25 51/2/25 45/3/25 10/4/25
f 45/1/26 15/2/26 11/3/26
f 10/1/26 45/2/26 11/3/26
f 45/1/27 14/2/27 15/3/27
f 46/1/28 12/2/28 16/3/28
f 13/1/28 46/2/28 16/3/28
f 46/1/18 9/2/18 12/3/18
f 47/1/2 19/2/2 20/3/2
f 17/1/2 47/2/2 20/3/2
f 47/1/2 18/2/2 19/3/2
f 48/1/21 24/2/21 23/3/21
f 22/1/21 48/2/21 23/3/21
f 48/1/21 21/2/21 24/3/21
f 50/1/22 21/2/22 48/3/22 52/4/22
f 17/1/23 50/2/23 52/3/23 47/4/23
f 52/1/24 48/2/24 22/3/24 49/4/24
f 47/1/25 52/2/25 49/3/25 18/4/25
f 49/1/29 23/2/29 19/3/29
f 18/1/11 49/2/11 19/3/11
f 49/1/11 22/2/11 23/3/11
f 50/1/18 20/2/18 24/3/18
f 21/1/28 50/2/28 24/3/28
f 50/1/28 17/2/28 20/3/28
