# Blender3D v249 OBJ File: 
# www.blender3d.org
mtllib try2.mtl
v -0.422150 0.250385 0.079300
v -0.422150 0.250385 0.516368
v -1.447066 0.250385 0.516368
v -1.447065 0.250385 0.079300
v -0.422150 0.394528 0.079300
v -0.422151 0.394528 0.516368
v -1.447066 0.394528 0.516368
v -1.447066 0.394528 0.079300
v 0.278500 0.278676 -0.081250
v 0.278500 0.278676 0.122289
v -0.641070 0.278676 0.122289
v -0.641070 0.278676 -0.081250
v 0.278501 0.366236 -0.081250
v 0.278500 0.366236 0.122289
v -0.641070 0.366236 0.122289
v -0.641070 0.366236 -0.081250
v 0.278500 0.278676 0.491090
v 0.278500 0.278676 0.694629
v -0.641070 0.278676 0.694629
v -0.641070 0.278676 0.491090
v 0.278500 0.366236 0.491090
v 0.278500 0.366236 0.694629
v -0.641070 0.366236 0.694629
v -0.641070 0.366236 0.491090
v -1.244901 0.250385 0.516368
v -0.422150 0.250385 0.297834
v -1.244901 0.250385 0.079300
v -1.757359 0.250385 0.297834
v -0.422150 0.394528 0.297834
v -1.244901 0.394528 0.516368
v -1.757359 0.394528 0.297834
v -1.244901 0.394528 0.079300
v -0.422150 0.322456 0.516368
v -0.422150 0.322456 0.079300
v -1.757359 0.322456 0.445943
v -1.757359 0.322456 0.149725
v -1.244901 0.250385 0.297834
v -1.555194 0.518736 0.297834
v -0.422150 0.322456 0.297834
v -1.244901 0.322456 0.516368
v -2.067652 0.322456 0.297834
v -1.244901 0.322456 0.079300
v 0.588793 0.278676 0.020519
v 0.588793 0.366236 0.020519
v 0.588793 0.322456 0.122289
v 0.588793 0.322456 -0.081250
v 0.588793 0.278676 0.592859
v 0.588793 0.366236 0.592859
v 0.588793 0.322456 0.694629
v 0.588793 0.322456 0.491090
v 0.588793 0.322456 0.020519
v 0.588793 0.322456 0.592859
vn -1.000000 -0.000002 -0.000001
vn 0.000000 -1.000000 0.000000
vn -0.241857 0.787304 -0.567149
vn 0.061649 0.970736 -0.232102
vn -0.241857 0.787304 0.567149
vn 0.061649 0.970736 0.232102
vn 1.000000 -0.000001 0.000002
vn 1.000000 -0.000001 0.000001
vn 1.000000 0.000002 0.000002
vn 1.000000 0.000002 0.000000
vn -0.000000 -0.000001 1.000000
vn -0.094561 -0.265248 0.959532
vn -0.094561 0.265247 0.959532
vn -0.250282 0.870573 0.423630
vn -0.250281 -0.870573 0.423630
vn -0.250281 0.870573 -0.423630
vn -0.250281 -0.870573 -0.423630
vn 0.000000 0.000001 -1.000000
vn -0.094560 0.265248 -0.959532
vn -0.094560 -0.265248 -0.959532
vn -0.000000 1.000000 -0.000000
vn 0.250924 0.889217 -0.382531
vn 0.250924 -0.889217 -0.382531
vn 0.250924 0.889217 0.382531
vn 0.250924 -0.889217 0.382531
vn -0.000000 0.000000 1.000000
vn -0.000000 -0.000002 1.000000
vn 0.000000 0.000000 -1.000000
vn -0.000000 0.000001 1.000000
usemtl (null)
s off
f 11//1 15//1 16//1 12//1
f 19//1 23//1 24//1 20//1
f 26//2 2//2 25//2 37//2
f 1//2 26//2 37//2 27//2
f 37//2 25//2 3//2 28//2
f 27//2 37//2 28//2 4//2
f 32//3 8//3 31//3 38//3
f 5//4 32//4 38//4 29//4
f 38//5 31//5 7//5 30//5
f 29//6 38//6 30//6 6//6
f 34//7 5//7 29//7 39//7
f 1//8 34//8 39//8 26//8
f 39//9 29//9 6//9 33//9
f 26//10 39//10 33//10 2//10
f 33//11 6//11 30//11 40//11
f 2//11 33//11 40//11 25//11
f 40//12 30//12 7//12 35//12
f 25//13 40//13 35//13 3//13
f 35//14 7//14 31//14 41//14
f 3//15 35//15 41//15 28//15
f 41//16 31//16 8//16 36//16
f 28//17 41//17 36//17 4//17
f 34//18 1//18 27//18 42//18
f 5//18 34//18 42//18 32//18
f 42//19 27//19 4//19 36//19
f 32//20 42//20 36//20 8//20
f 43//2 11//2 12//2
f 9//2 43//2 12//2
f 43//2 10//2 11//2
f 44//21 16//21 15//21
f 14//21 44//21 15//21
f 44//21 13//21 16//21
f 46//22 13//22 44//22 51//22
f 9//23 46//23 51//23 43//23
f 51//24 44//24 14//24 45//24
f 43//25 51//25 45//25 10//25
f 45//26 15//26 11//26
f 10//26 45//26 11//26
f 45//27 14//27 15//27
f 46//28 12//28 16//28
f 13//28 46//28 16//28
f 46//18 9//18 12//18
f 47//2 19//2 20//2
f 17//2 47//2 20//2
f 47//2 18//2 19//2
f 48//21 24//21 23//21
f 22//21 48//21 23//21
f 48//21 21//21 24//21
f 50//22 21//22 48//22 52//22
f 17//23 50//23 52//23 47//23
f 52//24 48//24 22//24 49//24
f 47//25 52//25 49//25 18//25
f 49//29 23//29 19//29
f 18//11 49//11 19//11
f 49//11 22//11 23//11
f 50//18 20//18 24//18
f 21//28 50//28 24//28
f 50//28 17//28 20//28
